{"title":"Donald.Trumps.The.Art.of.the.Deal.The.Movie.2016.WEBRip-VYTO","uid":13508070,"size":196858164,"categoryP":"video","categoryS":"tv_shows","magnet":"?xt=urn:btih:ad9373dd155136500c7c85736ad15b141f5783c2&amp;dn=Donald.Trumps.The.Art.of.the.Deal.The.Movie.2016.WEBRip-VYTO+&amp;tr=udp%3A%2F%2Ftracker.leechers-paradise.org%3A6969&amp;tr=udp%3A%2F%2Fzer0day.ch%3A1337&amp;tr=udp%3A%2F%2Fopen.demonii.com%3A1337&amp;tr=udp%3A%2F%2Ftracker.coppersurfer.tk%3A6969&amp;tr=udp%3A%2F%2Fexodus.desync.com%3A6969","seeders":2,"leechers":2,"uploader":"VYTOP2PDL","files":6,"time":1455258777,"description":"____    ____ ____    ____ .___________.  ______   \r\n     /   /      /   / |           | /  __    \r\n    /   /      /   /  `---|  |----`|  |  |  | \r\n        /     _    _/       |  |     |  |  |  | \r\n       /        |  |         |  |     |  `--'  | \r\n    __/         |__|         |__|      ______/  \r\n                                                  \r\nPresenting Small Encodes with quality for years!\r\n                                                                                                   \r\n                                                                                                   \r\n\r\n\r\nDonald.Trumps.The.Art.of.the.Deal.The.Movie.2016.WEBRip.480p.x264.AAC-VYTO\r\n\r\n \nhttp://www.imdb.com/title/tt5456120/\r\n\r\n\r\n\r\nFormat                                   : MPEG-4\r\nFile size                                : 181 MiB\r\nDuration                                 : 50mn 3s\r\nOverall bit rate                         : 505 Kbps\r\n\r\nVideo\r\nFormat                                   : AVC\r\nBit rate                                 : 470 Kbps\r\nWidth                                    : 720 pixels\r\nHeight                                   : 400 pixels\r\nDisplay aspect ratio                     : 16:9\r\nFrame rate mode                          : Constant\r\nFrame rate                               : 23.976 fps\r\nBit depth                                : 8 bits\r\nStream size                              : 168 MiB (93%)\r\nWriting library                          : x264\r\n\r\nAudio\r\nFormat                                   : AAC\r\nBit rate mode                            : Variable\r\nBit rate                                 : 32.0 Kbps\r\nChannel(s)                               : 2 channels\r\nChannel positions                        : Front: L R\r\nSampling rate                            : 48.0 KHz\r\nStream size                              : 11.4 MiB (6%)\r\nLanguage                                 : English\r\n\r\nSubtitle                                 : N/a\r\n\r\nScreen Shot: (Click link to view image)\r\n \nhttp://ititli.com/X1L \nhttp://ititli.com/X1d \nhttp://ititli.com/X10 \nhttp://ititli.com/X1A \nhttp://ititli.com/X1l \nhttp://ititli.com/X1m \nhttp://ititli.com/X1x \nhttp://ititli.com/X17\r\n\r\n----------------------------------------------------------------------------------------------------\r\n\r\n\r\nEncoder Notes: Looking For Early Access To Anything You Can Provide WEBDL, DVDScr, DVDR, BluRay,\r\nDirect Audio, Music Releases and Seedboxes. If You Got anything to offer please contact us.\r\n\r\nSupport us by donating BC - 1FgwdzPsd1y25Gea8wP1qni35uGCtmkRCD\r\n\r\nSend some love!\r\nFind us and join us!","torrent":{"xt":"urn:btih:ad9373dd155136500c7c85736ad15b141f5783c2","amp;dn":"Donald.Trumps.The.Art.of.the.Deal.The.Movie.2016.WEBRip-VYTO+","amp;tr":["udp%3A%2F%2Ftracker.leechers-paradise.org%3A6969","udp%3A%2F%2Fzer0day.ch%3A1337","udp%3A%2F%2Fopen.demonii.com%3A1337","udp%3A%2F%2Ftracker.coppersurfer.tk%3A6969","udp%3A%2F%2Fexodus.desync.com%3A6969"],"infoHash":"ad9373dd155136500c7c85736ad15b141f5783c2","infoHashBuffer":{"type":"Buffer","data":[173,147,115,221,21,81,54,80,12,124,133,115,106,209,91,20,31,87,131,194]},"announce":[],"urlList":[]}}